<svg width="192" height="192" viewBox="0 0 192 192" fill="none" xmlns="http://www.w3.org/2000/svg">
<mask id="mask0_91_2973" style="mask-type:alpha" maskUnits="userSpaceOnUse" x="0" y="0" width="192" height="192">
<rect width="192" height="192" fill="#D9D9D9"/>
</mask>
<g mask="url(#mask0_91_2973)">
<rect width="192" height="192" rx="96" fill="#131316"/>
<g filter="url(#filter0_f_91_2973)">
<path d="M161.382 143.152C161.839 142.505 161.375 141.621 160.584 141.606C115.9 140.744 79.836 141.535 33.5338 144.475C32.7431 144.525 32.3175 145.43 32.8038 146.056C47.4434 164.885 70.3144 177 96.0154 177C123.015 177 146.891 163.63 161.382 143.152Z" stroke="#4C4CFF" stroke-linecap="round" stroke-linejoin="round"/>
<path d="M24.046 61.9949C23.7025 62.6996 24.293 63.4932 25.071 63.3969C75.8599 57.1083 111.417 55.2934 164.593 58.8277C165.38 58.8799 165.926 58.0466 165.535 57.3623C151.752 33.2506 125.782 17 96.0154 17C64.38 17 37.0325 35.3553 24.046 61.9949Z" stroke="#4C4CFF" stroke-linecap="round" stroke-linejoin="round"/>
</g>
<g filter="url(#filter1_f_91_2973)">
<path d="M161.382 143.152C161.839 142.505 161.375 141.621 160.584 141.606C115.9 140.744 79.836 141.535 33.5338 144.475C32.7431 144.525 32.3175 145.43 32.8038 146.056C47.4434 164.885 70.3144 177 96.0154 177C123.015 177 146.891 163.63 161.382 143.152Z" stroke="#4C4CFF" stroke-linecap="round" stroke-linejoin="round"/>
<path d="M24.046 61.9949C23.7025 62.6996 24.293 63.4932 25.071 63.3969C75.8599 57.1083 111.417 55.2934 164.593 58.8277C165.38 58.8799 165.926 58.0466 165.535 57.3623C151.752 33.2506 125.782 17 96.0154 17C64.38 17 37.0325 35.3553 24.046 61.9949Z" stroke="#4C4CFF" stroke-linecap="round" stroke-linejoin="round"/>
</g>
<path d="M161.382 143.152C161.839 142.505 161.375 141.621 160.584 141.606C115.9 140.744 79.836 141.535 33.5338 144.475C32.7431 144.525 32.3175 145.43 32.8038 146.056C47.4434 164.885 70.3144 177 96.0154 177C123.015 177 146.891 163.63 161.382 143.152Z" stroke="#4C4CFF" stroke-linecap="round" stroke-linejoin="round"/>
<path d="M24.046 61.9949C23.7025 62.6996 24.293 63.4932 25.071 63.3969C75.8599 57.1083 111.417 55.2934 164.593 58.8277C165.38 58.8799 165.926 58.0466 165.535 57.3623C151.752 33.2506 125.782 17 96.0154 17C64.38 17 37.0325 35.3553 24.046 61.9949Z" stroke="#4C4CFF" stroke-linecap="round" stroke-linejoin="round"/>
<path d="M161.382 143.152C161.839 142.505 161.375 141.621 160.584 141.606C115.9 140.744 79.836 141.535 33.5338 144.475C32.7431 144.525 32.3175 145.43 32.8038 146.056C47.4434 164.885 70.3144 177 96.0154 177C123.015 177 146.891 163.63 161.382 143.152Z" stroke="white" stroke-width="0.5" stroke-linecap="round" stroke-linejoin="round"/>
<path d="M24.046 61.9949C23.7025 62.6996 24.293 63.4932 25.071 63.3969C75.8599 57.1083 111.417 55.2934 164.593 58.8277C165.38 58.8799 165.926 58.0466 165.535 57.3623C151.752 33.2506 125.782 17 96.0154 17C64.38 17 37.0325 35.3553 24.046 61.9949Z" stroke="white" stroke-width="0.5" stroke-linecap="round" stroke-linejoin="round"/>
<g filter="url(#filter2_f_91_2973)">
<path d="M175.925 101.218C175.98 100.159 175.165 99.2595 174.108 99.1706C117.996 94.4499 75.8843 93.7487 17.8978 97.0059C16.8389 97.0654 15.9978 97.9431 16.0231 99.0034C16.2491 108.485 18.125 117.558 21.3749 125.947C21.6782 126.73 22.4572 127.225 23.2961 127.195C76.8453 125.269 117.085 125.143 168.973 126.615C169.813 126.638 170.588 126.137 170.885 125.351C173.745 117.787 175.492 109.676 175.925 101.218Z" stroke="#E33CD5" stroke-linecap="round" stroke-linejoin="round"/>
</g>
<g filter="url(#filter3_f_91_2973)">
<path d="M175.925 101.218C175.98 100.159 175.165 99.2595 174.108 99.1706C117.996 94.4499 75.8843 93.7487 17.8978 97.0059C16.8389 97.0654 15.9978 97.9431 16.0231 99.0034C16.2491 108.485 18.125 117.558 21.3749 125.947C21.6782 126.73 22.4572 127.225 23.2961 127.195C76.8453 125.269 117.085 125.143 168.973 126.615C169.813 126.638 170.588 126.137 170.885 125.351C173.745 117.787 175.492 109.676 175.925 101.218Z" stroke="#E33CD5" stroke-linecap="round" stroke-linejoin="round"/>
</g>
<path d="M175.925 101.218C175.98 100.159 175.165 99.2595 174.108 99.1706C117.996 94.4499 75.8843 93.7487 17.8978 97.0059C16.8389 97.0654 15.9978 97.9431 16.0231 99.0034C16.2491 108.485 18.125 117.558 21.3749 125.947C21.6782 126.73 22.4572 127.225 23.2961 127.195C76.8453 125.269 117.085 125.143 168.973 126.615C169.813 126.638 170.588 126.137 170.885 125.351C173.745 117.787 175.492 109.676 175.925 101.218Z" stroke="#E33CD5" stroke-linecap="round" stroke-linejoin="round"/>
<path d="M175.925 101.218C175.98 100.159 175.165 99.2595 174.108 99.1706C117.996 94.4499 75.8843 93.7487 17.8978 97.0059C16.8389 97.0654 15.9978 97.9431 16.0231 99.0034C16.2491 108.485 18.125 117.558 21.3749 125.947C21.6782 126.73 22.4572 127.225 23.2961 127.195C76.8453 125.269 117.085 125.143 168.973 126.615C169.813 126.638 170.588 126.137 170.885 125.351C173.745 117.787 175.492 109.676 175.925 101.218Z" stroke="white" stroke-width="0.5" stroke-linecap="round" stroke-linejoin="round"/>
<g filter="url(#filter4_f_91_2973)">
<path d="M16 79C26.6667 71 37.3333 71 48 79C58.6667 87 69.3333 87 80 79C90.6667 71 101.333 71 112 79C122.667 87 133.333 87 144 79C154.667 71 165.333 71 176 79" stroke="#00CCCC" stroke-linecap="round" stroke-linejoin="round"/>
</g>
<g filter="url(#filter5_f_91_2973)">
<path d="M16 79C26.6667 71 37.3333 71 48 79C58.6667 87 69.3333 87 80 79C90.6667 71 101.333 71 112 79C122.667 87 133.333 87 144 79C154.667 71 165.333 71 176 79" stroke="#00CCCC" stroke-linecap="round" stroke-linejoin="round"/>
</g>
<path d="M16 79C26.6667 71 37.3333 71 48 79C58.6667 87 69.3333 87 80 79C90.6667 71 101.333 71 112 79C122.667 87 133.333 87 144 79C154.667 71 165.333 71 176 79" stroke="#00CCCC" stroke-linecap="round" stroke-linejoin="round"/>
<path d="M16 79C26.6667 71 37.3333 71 48 79C58.6667 87 69.3333 87 80 79C90.6667 71 101.333 71 112 79C122.667 87 133.333 87 144 79C154.667 71 165.333 71 176 79" stroke="white" stroke-width="0.5" stroke-linecap="round" stroke-linejoin="round"/>
<g filter="url(#filter6_f_91_2973)">
<ellipse cx="4" cy="3" rx="4" ry="3" transform="matrix(0.885492 0.464655 0.464655 -0.885492 64 157.723)" stroke="#4C4CFF"/>
<ellipse cx="130.831" cy="42.4166" rx="6" ry="4" transform="rotate(15 130.831 42.4166)" stroke="#4C4CFF"/>
<ellipse cx="4" cy="3" rx="4" ry="3" transform="matrix(0.965926 -0.258819 -0.258819 -0.965926 117.553 160.866)" stroke="#4C4CFF"/>
<ellipse cx="90" cy="45" rx="6" ry="4" transform="rotate(180 90 45)" stroke="#4C4CFF"/>
<ellipse cx="106.831" cy="30.4166" rx="6" ry="4" transform="rotate(15 106.831 30.4166)" stroke="#4C4CFF"/>
<ellipse cx="4" cy="3" rx="4" ry="3" transform="matrix(1 0 0 -1 92 167)" stroke="#4C4CFF"/>
<ellipse cx="63.1716" cy="39.3302" rx="6" ry="4" transform="rotate(-27.6879 63.1716 39.3302)" stroke="#4C4CFF"/>
</g>
<g filter="url(#filter7_f_91_2973)">
<ellipse cx="4" cy="3" rx="4" ry="3" transform="matrix(0.885492 0.464655 0.464655 -0.885492 64 157.723)" stroke="#4C4CFF"/>
<ellipse cx="130.831" cy="42.4166" rx="6" ry="4" transform="rotate(15 130.831 42.4166)" stroke="#4C4CFF"/>
<ellipse cx="4" cy="3" rx="4" ry="3" transform="matrix(0.965926 -0.258819 -0.258819 -0.965926 117.553 160.866)" stroke="#4C4CFF"/>
<ellipse cx="90" cy="45" rx="6" ry="4" transform="rotate(180 90 45)" stroke="#4C4CFF"/>
<ellipse cx="106.831" cy="30.4166" rx="6" ry="4" transform="rotate(15 106.831 30.4166)" stroke="#4C4CFF"/>
<ellipse cx="4" cy="3" rx="4" ry="3" transform="matrix(1 0 0 -1 92 167)" stroke="#4C4CFF"/>
<ellipse cx="63.1716" cy="39.3302" rx="6" ry="4" transform="rotate(-27.6879 63.1716 39.3302)" stroke="#4C4CFF"/>
</g>
<ellipse cx="4" cy="3" rx="4" ry="3" transform="matrix(0.885492 0.464655 0.464655 -0.885492 64 157.723)" stroke="#4C4CFF"/>
<ellipse cx="130.831" cy="42.4166" rx="6" ry="4" transform="rotate(15 130.831 42.4166)" stroke="#4C4CFF"/>
<ellipse cx="4" cy="3" rx="4" ry="3" transform="matrix(0.965926 -0.258819 -0.258819 -0.965926 117.553 160.866)" stroke="#4C4CFF"/>
<ellipse cx="90" cy="45" rx="6" ry="4" transform="rotate(180 90 45)" stroke="#4C4CFF"/>
<ellipse cx="106.831" cy="30.4166" rx="6" ry="4" transform="rotate(15 106.831 30.4166)" stroke="#4C4CFF"/>
<ellipse cx="4" cy="3" rx="4" ry="3" transform="matrix(1 0 0 -1 92 167)" stroke="#4C4CFF"/>
<ellipse cx="63.1716" cy="39.3302" rx="6" ry="4" transform="rotate(-27.6879 63.1716 39.3302)" stroke="#4C4CFF"/>
<ellipse cx="4" cy="3" rx="4" ry="3" transform="matrix(0.885492 0.464655 0.464655 -0.885492 64 157.723)" stroke="white" stroke-width="0.5"/>
<ellipse cx="130.831" cy="42.4166" rx="6" ry="4" transform="rotate(15 130.831 42.4166)" stroke="white" stroke-width="0.5"/>
<ellipse cx="4" cy="3" rx="4" ry="3" transform="matrix(0.965926 -0.258819 -0.258819 -0.965926 117.553 160.866)" stroke="white" stroke-width="0.5"/>
<ellipse cx="90" cy="45" rx="6" ry="4" transform="rotate(180 90 45)" stroke="white" stroke-width="0.5"/>
<ellipse cx="106.831" cy="30.4166" rx="6" ry="4" transform="rotate(15 106.831 30.4166)" stroke="white" stroke-width="0.5"/>
<ellipse cx="4" cy="3" rx="4" ry="3" transform="matrix(1 0 0 -1 92 167)" stroke="white" stroke-width="0.5"/>
<ellipse cx="63.1716" cy="39.3302" rx="6" ry="4" transform="rotate(-27.6879 63.1716 39.3302)" stroke="white" stroke-width="0.5"/>
</g>
<defs>
<filter id="filter0_f_91_2973" x="19.4437" y="12.5" width="150.724" height="169" filterUnits="userSpaceOnUse" color-interpolation-filters="sRGB">
<feFlood flood-opacity="0" result="BackgroundImageFix"/>
<feBlend mode="normal" in="SourceGraphic" in2="BackgroundImageFix" result="shape"/>
<feGaussianBlur stdDeviation="2" result="effect1_foregroundBlur_91_2973"/>
</filter>
<filter id="filter1_f_91_2973" x="19.4437" y="12.5" width="150.724" height="169" filterUnits="userSpaceOnUse" color-interpolation-filters="sRGB">
<feFlood flood-opacity="0" result="BackgroundImageFix"/>
<feBlend mode="normal" in="SourceGraphic" in2="BackgroundImageFix" result="shape"/>
<feGaussianBlur stdDeviation="2" result="effect1_foregroundBlur_91_2973"/>
</filter>
<filter id="filter2_f_91_2973" x="11.5226" y="90.5" width="168.905" height="41.1961" filterUnits="userSpaceOnUse" color-interpolation-filters="sRGB">
<feFlood flood-opacity="0" result="BackgroundImageFix"/>
<feBlend mode="normal" in="SourceGraphic" in2="BackgroundImageFix" result="shape"/>
<feGaussianBlur stdDeviation="2" result="effect1_foregroundBlur_91_2973"/>
</filter>
<filter id="filter3_f_91_2973" x="11.5226" y="90.5" width="168.905" height="41.1961" filterUnits="userSpaceOnUse" color-interpolation-filters="sRGB">
<feFlood flood-opacity="0" result="BackgroundImageFix"/>
<feBlend mode="normal" in="SourceGraphic" in2="BackgroundImageFix" result="shape"/>
<feGaussianBlur stdDeviation="2" result="effect1_foregroundBlur_91_2973"/>
</filter>
<filter id="filter4_f_91_2973" x="11.5" y="68.5" width="169" height="21" filterUnits="userSpaceOnUse" color-interpolation-filters="sRGB">
<feFlood flood-opacity="0" result="BackgroundImageFix"/>
<feBlend mode="normal" in="SourceGraphic" in2="BackgroundImageFix" result="shape"/>
<feGaussianBlur stdDeviation="2" result="effect1_foregroundBlur_91_2973"/>
</filter>
<filter id="filter5_f_91_2973" x="11.5" y="68.5" width="169" height="21" filterUnits="userSpaceOnUse" color-interpolation-filters="sRGB">
<feFlood flood-opacity="0" result="BackgroundImageFix"/>
<feBlend mode="normal" in="SourceGraphic" in2="BackgroundImageFix" result="shape"/>
<feGaussianBlur stdDeviation="2" result="effect1_foregroundBlur_91_2973"/>
</filter>
<filter id="filter6_f_91_2973" x="53.0411" y="21.7514" width="88.1782" height="149.749" filterUnits="userSpaceOnUse" color-interpolation-filters="sRGB">
<feFlood flood-opacity="0" result="BackgroundImageFix"/>
<feBlend mode="normal" in="SourceGraphic" in2="BackgroundImageFix" result="shape"/>
<feGaussianBlur stdDeviation="2" result="effect1_foregroundBlur_91_2973"/>
</filter>
<filter id="filter7_f_91_2973" x="53.0411" y="21.7514" width="88.1782" height="149.749" filterUnits="userSpaceOnUse" color-interpolation-filters="sRGB">
<feFlood flood-opacity="0" result="BackgroundImageFix"/>
<feBlend mode="normal" in="SourceGraphic" in2="BackgroundImageFix" result="shape"/>
<feGaussianBlur stdDeviation="2" result="effect1_foregroundBlur_91_2973"/>
</filter>
</defs>
</svg>
